<svg width="37" height="33" viewBox="0 0 37 33" fill="none" xmlns="http://www.w3.org/2000/svg">
<path fill-rule="evenodd" clip-rule="evenodd" d="M34.5387 14.6113C34.3013 16.2559 33.7387 17.8189 32.905 19.2563C32.9675 19.6121 32.9996 19.9719 32.9996 20.3331C32.9996 21.5878 32.636 22.7886 31.9626 23.8796C31.6264 24.4242 31.5399 25.0623 31.5067 25.4839C31.4685 25.9671 31.4814 26.4958 31.5159 27.0037C31.5546 27.5735 31.6246 28.1717 31.7048 28.736C31.0543 28.5463 30.3492 28.3558 29.6763 28.204C29.1166 28.0777 28.5439 27.9701 28.0252 27.9165C27.5727 27.8698 26.9188 27.8336 26.3341 28.0226C25.0556 28.4359 23.6488 28.6665 22.1662 28.6665C20.403 28.6665 18.7837 28.3535 17.3643 27.8098C17.0229 27.8253 16.679 27.8331 16.3328 27.8331C14.3252 27.8331 12.3929 27.5691 10.585 27.0811C13.2132 30.1209 17.546 31.9998 22.1662 31.9998C23.9711 31.9998 25.7034 31.7227 27.2999 31.2135C27.3027 31.2136 27.3078 31.2135 27.3153 31.2133C27.3563 31.2125 27.4701 31.2103 27.6827 31.2322C28.017 31.2667 28.4469 31.3438 28.9428 31.4556C29.9301 31.6783 31.0395 32.007 31.9041 32.2814C33.7377 32.8635 35.5143 31.2634 35.1866 29.4027C35.0456 28.6019 34.899 27.6245 34.8415 26.7778C34.8126 26.3521 34.8094 26.0026 34.8297 25.7462C34.8381 25.6399 34.8488 25.5733 34.8556 25.5379C35.7933 23.9846 36.3329 22.216 36.3329 20.3331C36.3329 18.2105 35.6736 16.2723 34.5387 14.6113Z" fill="#FF5A30"/>
<path fill-rule="evenodd" clip-rule="evenodd" d="M7.32773 6.49661C5.08113 8.2146 3.83266 10.4698 3.83266 12.833C3.83266 14.0114 4.13943 15.1463 4.71496 16.2017C4.93417 16.6037 4.99636 17.0183 5.0186 17.299C5.04285 17.6051 5.03076 17.9197 5.00414 18.2139C4.95085 18.8028 4.82372 19.4701 4.67124 20.1274C4.49287 20.8962 4.26431 21.7162 4.03239 22.486C4.91281 22.166 5.87508 21.8381 6.78733 21.5719C7.52461 21.3568 8.26918 21.1702 8.93185 21.0654C9.5027 20.9751 10.3311 20.8864 11.0443 21.1332C12.6448 21.6869 14.4353 21.9997 16.3327 21.9997C19.9113 21.9997 23.0895 20.8886 25.3376 19.1694C27.5842 17.4514 28.8327 15.1962 28.8327 12.833C28.8327 10.4698 27.5842 8.2146 25.3376 6.49661C23.0895 4.77745 19.9113 3.66634 16.3327 3.66634C12.754 3.66634 9.57586 4.77745 7.32773 6.49661ZM5.30289 3.84875C8.18209 1.64702 12.0872 0.333008 16.3327 0.333008C20.5781 0.333008 24.4832 1.64702 27.3624 3.84875C30.2431 6.05167 32.166 9.21311 32.166 12.833C32.166 16.4529 30.2431 19.6143 27.3624 21.8173C24.4832 24.019 20.5781 25.333 16.3327 25.333C14.0942 25.333 11.9561 24.9681 10.0148 24.3041C10.0128 24.3095 9.85537 24.2941 9.45245 24.3578C8.98803 24.4313 8.39522 24.5751 7.72089 24.7719C6.37845 25.1635 4.87087 25.7176 3.72255 26.1645C1.73317 26.9387 -0.293418 25.0281 0.376849 22.9929C0.732099 21.9142 1.15108 20.5511 1.42414 19.3741C1.5617 18.7812 1.65096 18.2827 1.68437 17.9135C1.69596 17.7853 1.69896 17.6919 1.69829 17.6288C0.931153 16.1629 0.499324 14.5417 0.499324 12.833C0.499324 9.21311 2.42216 6.05167 5.30289 3.84875ZM1.6928 17.5379C1.69296 17.5377 1.69377 17.5422 1.69475 17.5518C1.69313 17.5429 1.69264 17.5381 1.6928 17.5379Z" fill="#FF5A30"/>
</svg>
